<?xml version="1.0" encoding="utf-8"?>
<!-- Generator: Adobe Illustrator 19.1.0, SVG Export Plug-In . SVG Version: 6.00 Build 0)  -->
<svg version="1.1" id="Layer_1" xmlns="http://www.w3.org/2000/svg" xmlns:xlink="http://www.w3.org/1999/xlink" x="0px" y="0px"
	 viewBox="0 0 25 25" style="enable-background:new 0 0 25 25;" xml:space="preserve">
<style type="text/css">
	.st0{fill:#5E5E5E;}
</style>
<path class="st0" d="M21.6,6.6l-6.1,6.1l6.1,6.1c0.9,0.9,0.9,2.4,0,3.3c-0.4,0.5-1,0.7-1.6,0.7c-0.6,0-1.2-0.2-1.6-0.7L12.3,16
	L6.2,22c-0.5,0.5-1,0.7-1.6,0.7c-0.6,0-1.2-0.2-1.6-0.7c-0.9-0.9-0.9-2.4,0-3.3L9,12.7L2.9,6.6C2,5.7,2,4.3,2.9,3.4
	c0.9-0.9,2.4-0.9,3.3,0l6.1,6.1l6.1-6.1c0.9-0.9,2.4-0.9,3.3,0C22.5,4.3,22.5,5.7,21.6,6.6L21.6,6.6z M21.6,6.6"/>
</svg>
